<svg width="431" height="384" viewBox="0 0 431 384" fill="none" xmlns="http://www.w3.org/2000/svg">
<path d="M144.04 368C152.877 368 160.04 360.837 160.04 352C160.04 343.163 152.877 336 144.04 336C135.203 336 128.04 343.163 128.04 352C128.04 360.837 135.203 368 144.04 368Z" stroke="black" stroke-width="32" stroke-linecap="round" stroke-linejoin="round"/>
<path d="M368.04 368C376.877 368 384.04 360.837 384.04 352C384.04 343.163 376.877 336 368.04 336C359.203 336 352.04 343.163 352.04 352C352.04 360.837 359.203 368 368.04 368Z" stroke="black" stroke-width="32" stroke-linecap="round" stroke-linejoin="round"/>
<path d="M16.04 16H80.04L128.04 288H384.04" stroke="black" stroke-width="32" stroke-linecap="round" stroke-linejoin="round"/>
<path d="M128.04 224H377.48C379.33 224.001 381.124 223.361 382.555 222.189C383.986 221.016 384.967 219.384 385.33 217.57L414.13 73.57C414.362 72.4089 414.334 71.2106 414.047 70.0617C413.76 68.9128 413.222 67.8419 412.471 66.9264C411.72 66.0108 410.775 65.2734 409.704 64.7673C408.634 64.2612 407.464 63.9992 406.28 64H96.04" stroke="black" stroke-width="32" stroke-linecap="round" stroke-linejoin="round"/>
</svg>
