<svg width="300" height="100" viewBox="0 0 300 100" fill="none" xmlns="http://www.w3.org/2000/svg">
<g clip-path="url(#clip0_1_11)">
<rect width="300" height="100" fill="white"/>
<path d="M71.1648 68V17.0909H77.3295V62.5312H100.994V68H71.1648ZM125.256 68.7955C121.809 68.7955 118.784 67.9751 116.183 66.3345C113.597 64.6939 111.576 62.3987 110.117 59.4489C108.675 56.4991 107.955 53.0521 107.955 49.108C107.955 45.1307 108.675 41.6589 110.117 38.6925C111.576 35.7261 113.597 33.4226 116.183 31.782C118.784 30.1413 121.809 29.321 125.256 29.321C128.703 29.321 131.719 30.1413 134.304 31.782C136.906 33.4226 138.928 35.7261 140.369 38.6925C141.828 41.6589 142.557 45.1307 142.557 49.108C142.557 53.0521 141.828 56.4991 140.369 59.4489C138.928 62.3987 136.906 64.6939 134.304 66.3345C131.719 67.9751 128.703 68.7955 125.256 68.7955ZM125.256 63.5256C127.874 63.5256 130.028 62.8544 131.719 61.5121C133.409 60.1697 134.66 58.4048 135.472 56.2173C136.284 54.0298 136.69 51.66 136.69 49.108C136.69 46.5559 136.284 44.1778 135.472 41.9737C134.66 39.7696 133.409 37.9882 131.719 36.6293C130.028 35.2704 127.874 34.5909 125.256 34.5909C122.637 34.5909 120.483 35.2704 118.793 36.6293C117.102 37.9882 115.851 39.7696 115.039 41.9737C114.227 44.1778 113.821 46.5559 113.821 49.108C113.821 51.66 114.227 54.0298 115.039 56.2173C115.851 58.4048 117.102 60.1697 118.793 61.5121C120.483 62.8544 122.637 63.5256 125.256 63.5256ZM166.924 83.1136C164.09 83.1136 161.654 82.7491 159.616 82.0199C157.577 81.3073 155.879 80.3627 154.52 79.1861C153.177 78.026 152.108 76.7831 151.313 75.4574L155.986 72.1761C156.517 72.8722 157.188 73.6676 158 74.5625C158.812 75.474 159.922 76.2611 161.331 76.924C162.756 77.6035 164.62 77.9432 166.924 77.9432C170.006 77.9432 172.55 77.1974 174.555 75.706C176.56 74.2145 177.563 71.8778 177.563 68.696V60.9403H177.066C176.635 61.6364 176.022 62.4981 175.226 63.5256C174.448 64.5365 173.321 65.4396 171.846 66.2351C170.387 67.014 168.415 67.4034 165.93 67.4034C162.847 67.4034 160.08 66.6742 157.627 65.2159C155.191 63.7576 153.26 61.6364 151.835 58.8523C150.426 56.0682 149.722 52.6875 149.722 48.7102C149.722 44.7992 150.41 41.3937 151.785 38.4936C153.161 35.5769 155.075 33.3232 157.528 31.7322C159.98 30.1248 162.814 29.321 166.029 29.321C168.515 29.321 170.487 29.7353 171.945 30.5639C173.42 31.3759 174.547 32.304 175.326 33.348C176.121 34.3755 176.734 35.2206 177.165 35.8835H177.762V29.8182H183.43V69.0938C183.43 72.375 182.684 75.0431 181.192 77.098C179.717 79.1695 177.729 80.6858 175.226 81.647C172.741 82.6248 169.973 83.1136 166.924 83.1136ZM166.725 62.1335C169.078 62.1335 171.067 61.5949 172.691 60.5178C174.315 59.4406 175.55 57.8911 176.395 55.8693C177.24 53.8475 177.662 51.428 177.662 48.6108C177.662 45.8598 177.248 43.4321 176.42 41.3274C175.591 39.2228 174.365 37.5739 172.741 36.3807C171.117 35.1875 169.111 34.5909 166.725 34.5909C164.239 34.5909 162.168 35.2206 160.51 36.4801C158.87 37.7396 157.635 39.4299 156.807 41.5511C155.995 43.6723 155.589 46.0256 155.589 48.6108C155.589 51.2623 156.003 53.6072 156.831 55.6456C157.677 57.6674 158.92 59.2583 160.56 60.4183C162.217 61.5618 164.272 62.1335 166.725 62.1335ZM209.68 68.7955C206.233 68.7955 203.208 67.9751 200.606 66.3345C198.021 64.6939 195.999 62.3987 194.541 59.4489C193.099 56.4991 192.378 53.0521 192.378 49.108C192.378 45.1307 193.099 41.6589 194.541 38.6925C195.999 35.7261 198.021 33.4226 200.606 31.782C203.208 30.1413 206.233 29.321 209.68 29.321C213.126 29.321 216.143 30.1413 218.728 31.782C221.33 33.4226 223.351 35.7261 224.793 38.6925C226.251 41.6589 226.981 45.1307 226.981 49.108C226.981 53.0521 226.251 56.4991 224.793 59.4489C223.351 62.3987 221.33 64.6939 218.728 66.3345C216.143 67.9751 213.126 68.7955 209.68 68.7955ZM209.68 63.5256C212.298 63.5256 214.452 62.8544 216.143 61.5121C217.833 60.1697 219.084 58.4048 219.896 56.2173C220.708 54.0298 221.114 51.66 221.114 49.108C221.114 46.5559 220.708 44.1778 219.896 41.9737C219.084 39.7696 217.833 37.9882 216.143 36.6293C214.452 35.2704 212.298 34.5909 209.68 34.5909C207.061 34.5909 204.907 35.2704 203.216 36.6293C201.526 37.9882 200.275 39.7696 199.463 41.9737C198.651 44.1778 198.245 46.5559 198.245 49.108C198.245 51.66 198.651 54.0298 199.463 56.2173C200.275 58.4048 201.526 60.1697 203.216 61.5121C204.907 62.8544 207.061 63.5256 209.68 63.5256Z" fill="black"/>
</g>
<rect x="1.5" y="1.5" width="297" height="97" stroke="black" stroke-width="3"/>
<defs>
<clipPath id="clip0_1_11">
<rect width="300" height="100" fill="white"/>
</clipPath>
</defs>
</svg>
